<svg xmlns="http://www.w3.org/2000/svg" xmlns:xlink="http://www.w3.org/1999/xlink" width="150" zoomAndPan="magnify" viewBox="0 0 112.5 30.000001" height="40" preserveAspectRatio="xMidYMid meet" version="1.2"><defs><clipPath id="2d8454706a"><path d="M 20 0 L 36.410156 0 L 36.410156 26 L 20 26 Z M 20 0 "/></clipPath><clipPath id="d18d5068a8"><path d="M 4.476562 0 L 26 0 L 26 29.03125 L 4.476562 29.03125 Z M 4.476562 0 "/></clipPath></defs><g id="b17a6d25eb"><g style="fill:#171f4e;fill-opacity:1;"><g transform="translate(37.937041, 17.77974)"><path style="stroke:none" d="M 4.296875 0 L 2.421875 -6.140625 L 2.375 -6.140625 C 2.375 -5.992188 2.378906 -5.773438 2.390625 -5.484375 C 2.410156 -5.191406 2.425781 -4.878906 2.4375 -4.546875 C 2.457031 -4.210938 2.46875 -3.910156 2.46875 -3.640625 L 2.46875 0 L 0.984375 0 L 0.984375 -7.828125 L 3.25 -7.828125 L 5.09375 -1.84375 L 5.125 -1.84375 L 7.09375 -7.828125 L 9.359375 -7.828125 L 9.359375 0 L 7.8125 0 L 7.8125 -3.703125 C 7.8125 -3.953125 7.8125 -4.238281 7.8125 -4.5625 C 7.820312 -4.882812 7.832031 -5.1875 7.84375 -5.46875 C 7.863281 -5.757812 7.878906 -5.976562 7.890625 -6.125 L 7.84375 -6.125 L 5.828125 0 Z M 4.296875 0 "/></g></g><g style="fill:#171f4e;fill-opacity:1;"><g transform="translate(47.794446, 17.77974)"><path style="stroke:none" d="M 3.328125 -6.09375 C 3.878906 -6.09375 4.351562 -5.988281 4.75 -5.78125 C 5.15625 -5.570312 5.46875 -5.265625 5.6875 -4.859375 C 5.90625 -4.453125 6.015625 -3.957031 6.015625 -3.375 L 6.015625 -2.59375 L 2.140625 -2.59375 C 2.160156 -2.125 2.300781 -1.757812 2.5625 -1.5 C 2.820312 -1.238281 3.179688 -1.109375 3.640625 -1.109375 C 4.023438 -1.109375 4.375 -1.144531 4.6875 -1.21875 C 5.007812 -1.300781 5.335938 -1.421875 5.671875 -1.578125 L 5.671875 -0.3125 C 5.378906 -0.164062 5.070312 -0.0625 4.75 0 C 4.425781 0.0703125 4.03125 0.109375 3.5625 0.109375 C 2.96875 0.109375 2.4375 0 1.96875 -0.21875 C 1.507812 -0.445312 1.148438 -0.785156 0.890625 -1.234375 C 0.628906 -1.691406 0.5 -2.265625 0.5 -2.953125 C 0.5 -3.648438 0.613281 -4.234375 0.84375 -4.703125 C 1.082031 -5.171875 1.414062 -5.519531 1.84375 -5.75 C 2.269531 -5.976562 2.765625 -6.09375 3.328125 -6.09375 Z M 3.34375 -4.9375 C 3.019531 -4.9375 2.753906 -4.832031 2.546875 -4.625 C 2.335938 -4.425781 2.21875 -4.109375 2.1875 -3.671875 L 4.484375 -3.671875 C 4.472656 -3.910156 4.425781 -4.125 4.34375 -4.3125 C 4.257812 -4.507812 4.132812 -4.660156 3.96875 -4.765625 C 3.800781 -4.878906 3.59375 -4.9375 3.34375 -4.9375 Z M 3.34375 -4.9375 "/></g></g><g style="fill:#171f4e;fill-opacity:1;"><g transform="translate(53.791088, 17.77974)"><path style="stroke:none" d="M 5.03125 -1.78125 C 5.03125 -1.375 4.9375 -1.03125 4.75 -0.75 C 4.5625 -0.46875 4.273438 -0.253906 3.890625 -0.109375 C 3.515625 0.0351562 3.046875 0.109375 2.484375 0.109375 C 2.066406 0.109375 1.707031 0.0820312 1.40625 0.03125 C 1.101562 -0.0195312 0.800781 -0.109375 0.5 -0.234375 L 0.5 -1.59375 C 0.820312 -1.445312 1.171875 -1.328125 1.546875 -1.234375 C 1.921875 -1.140625 2.25 -1.09375 2.53125 -1.09375 C 2.851562 -1.09375 3.082031 -1.140625 3.21875 -1.234375 C 3.351562 -1.328125 3.421875 -1.445312 3.421875 -1.59375 C 3.421875 -1.695312 3.390625 -1.789062 3.328125 -1.875 C 3.273438 -1.957031 3.15625 -2.046875 2.96875 -2.140625 C 2.789062 -2.242188 2.507812 -2.378906 2.125 -2.546875 C 1.75 -2.703125 1.441406 -2.859375 1.203125 -3.015625 C 0.960938 -3.179688 0.785156 -3.375 0.671875 -3.59375 C 0.554688 -3.8125 0.5 -4.085938 0.5 -4.421875 C 0.5 -4.984375 0.710938 -5.398438 1.140625 -5.671875 C 1.566406 -5.953125 2.140625 -6.09375 2.859375 -6.09375 C 3.234375 -6.09375 3.585938 -6.054688 3.921875 -5.984375 C 4.265625 -5.910156 4.613281 -5.789062 4.96875 -5.625 L 4.484375 -4.453125 C 4.179688 -4.578125 3.898438 -4.679688 3.640625 -4.765625 C 3.378906 -4.847656 3.113281 -4.890625 2.84375 -4.890625 C 2.601562 -4.890625 2.421875 -4.859375 2.296875 -4.796875 C 2.171875 -4.734375 2.109375 -4.632812 2.109375 -4.5 C 2.109375 -4.40625 2.140625 -4.316406 2.203125 -4.234375 C 2.265625 -4.160156 2.382812 -4.078125 2.5625 -3.984375 C 2.75 -3.898438 3.019531 -3.785156 3.375 -3.640625 C 3.707031 -3.503906 4 -3.359375 4.25 -3.203125 C 4.5 -3.054688 4.691406 -2.867188 4.828125 -2.640625 C 4.960938 -2.421875 5.03125 -2.132812 5.03125 -1.78125 Z M 5.03125 -1.78125 "/></g></g><g style="fill:#171f4e;fill-opacity:1;"><g transform="translate(58.759621, 17.77974)"><path style="stroke:none" d="M 5.03125 -1.78125 C 5.03125 -1.375 4.9375 -1.03125 4.75 -0.75 C 4.5625 -0.46875 4.273438 -0.253906 3.890625 -0.109375 C 3.515625 0.0351562 3.046875 0.109375 2.484375 0.109375 C 2.066406 0.109375 1.707031 0.0820312 1.40625 0.03125 C 1.101562 -0.0195312 0.800781 -0.109375 0.5 -0.234375 L 0.5 -1.59375 C 0.820312 -1.445312 1.171875 -1.328125 1.546875 -1.234375 C 1.921875 -1.140625 2.25 -1.09375 2.53125 -1.09375 C 2.851562 -1.09375 3.082031 -1.140625 3.21875 -1.234375 C 3.351562 -1.328125 3.421875 -1.445312 3.421875 -1.59375 C 3.421875 -1.695312 3.390625 -1.789062 3.328125 -1.875 C 3.273438 -1.957031 3.15625 -2.046875 2.96875 -2.140625 C 2.789062 -2.242188 2.507812 -2.378906 2.125 -2.546875 C 1.75 -2.703125 1.441406 -2.859375 1.203125 -3.015625 C 0.960938 -3.179688 0.785156 -3.375 0.671875 -3.59375 C 0.554688 -3.8125 0.5 -4.085938 0.5 -4.421875 C 0.5 -4.984375 0.710938 -5.398438 1.140625 -5.671875 C 1.566406 -5.953125 2.140625 -6.09375 2.859375 -6.09375 C 3.234375 -6.09375 3.585938 -6.054688 3.921875 -5.984375 C 4.265625 -5.910156 4.613281 -5.789062 4.96875 -5.625 L 4.484375 -4.453125 C 4.179688 -4.578125 3.898438 -4.679688 3.640625 -4.765625 C 3.378906 -4.847656 3.113281 -4.890625 2.84375 -4.890625 C 2.601562 -4.890625 2.421875 -4.859375 2.296875 -4.796875 C 2.171875 -4.734375 2.109375 -4.632812 2.109375 -4.5 C 2.109375 -4.40625 2.140625 -4.316406 2.203125 -4.234375 C 2.265625 -4.160156 2.382812 -4.078125 2.5625 -3.984375 C 2.75 -3.898438 3.019531 -3.785156 3.375 -3.640625 C 3.707031 -3.503906 4 -3.359375 4.25 -3.203125 C 4.5 -3.054688 4.691406 -2.867188 4.828125 -2.640625 C 4.960938 -2.421875 5.03125 -2.132812 5.03125 -1.78125 Z M 5.03125 -1.78125 "/></g></g><g style="fill:#171f4e;fill-opacity:1;"><g transform="translate(63.728155, 17.77974)"><path style="stroke:none" d="M 3.3125 -6.109375 C 4.113281 -6.109375 4.726562 -5.929688 5.15625 -5.578125 C 5.582031 -5.234375 5.796875 -4.703125 5.796875 -3.984375 L 5.796875 0 L 4.65625 0 L 4.34375 -0.8125 L 4.296875 -0.8125 C 4.128906 -0.601562 3.957031 -0.425781 3.78125 -0.28125 C 3.601562 -0.144531 3.394531 -0.046875 3.15625 0.015625 C 2.925781 0.078125 2.644531 0.109375 2.3125 0.109375 C 1.957031 0.109375 1.640625 0.0390625 1.359375 -0.09375 C 1.078125 -0.226562 0.851562 -0.4375 0.6875 -0.71875 C 0.53125 -1 0.453125 -1.351562 0.453125 -1.78125 C 0.453125 -2.425781 0.675781 -2.894531 1.125 -3.1875 C 1.570312 -3.488281 2.242188 -3.660156 3.140625 -3.703125 L 4.171875 -3.734375 L 4.171875 -3.984375 C 4.171875 -4.304688 4.085938 -4.539062 3.921875 -4.6875 C 3.765625 -4.832031 3.539062 -4.90625 3.25 -4.90625 C 2.957031 -4.90625 2.671875 -4.863281 2.390625 -4.78125 C 2.109375 -4.695312 1.832031 -4.59375 1.5625 -4.46875 L 1.015625 -5.5625 C 1.335938 -5.738281 1.691406 -5.875 2.078125 -5.96875 C 2.472656 -6.0625 2.882812 -6.109375 3.3125 -6.109375 Z M 4.171875 -2.78125 L 3.546875 -2.75 C 3.015625 -2.738281 2.644531 -2.644531 2.4375 -2.46875 C 2.238281 -2.289062 2.140625 -2.0625 2.140625 -1.78125 C 2.140625 -1.53125 2.210938 -1.351562 2.359375 -1.25 C 2.503906 -1.144531 2.691406 -1.09375 2.921875 -1.09375 C 3.273438 -1.09375 3.570312 -1.191406 3.8125 -1.390625 C 4.050781 -1.597656 4.171875 -1.894531 4.171875 -2.28125 Z M 4.171875 -2.78125 "/></g></g><g style="fill:#171f4e;fill-opacity:1;"><g transform="translate(69.869379, 17.77974)"><path style="stroke:none" d="M 2.609375 2.640625 C 1.773438 2.640625 1.132812 2.492188 0.6875 2.203125 C 0.25 1.910156 0.03125 1.5 0.03125 0.96875 C 0.03125 0.613281 0.140625 0.3125 0.359375 0.0625 C 0.585938 -0.175781 0.921875 -0.347656 1.359375 -0.453125 C 1.191406 -0.523438 1.046875 -0.640625 0.921875 -0.796875 C 0.796875 -0.960938 0.734375 -1.132812 0.734375 -1.3125 C 0.734375 -1.539062 0.796875 -1.726562 0.921875 -1.875 C 1.054688 -2.03125 1.25 -2.179688 1.5 -2.328125 C 1.1875 -2.460938 0.9375 -2.679688 0.75 -2.984375 C 0.570312 -3.285156 0.484375 -3.640625 0.484375 -4.046875 C 0.484375 -4.484375 0.578125 -4.851562 0.765625 -5.15625 C 0.960938 -5.46875 1.242188 -5.703125 1.609375 -5.859375 C 1.972656 -6.015625 2.414062 -6.09375 2.9375 -6.09375 C 3.050781 -6.09375 3.179688 -6.085938 3.328125 -6.078125 C 3.472656 -6.066406 3.609375 -6.050781 3.734375 -6.03125 C 3.859375 -6.007812 3.941406 -5.992188 3.984375 -5.984375 L 6.0625 -5.984375 L 6.0625 -5.15625 L 5.125 -4.921875 C 5.21875 -4.785156 5.285156 -4.640625 5.328125 -4.484375 C 5.367188 -4.335938 5.390625 -4.179688 5.390625 -4.015625 C 5.390625 -3.367188 5.164062 -2.863281 4.71875 -2.5 C 4.269531 -2.144531 3.644531 -1.96875 2.84375 -1.96875 C 2.65625 -1.988281 2.476562 -2.003906 2.3125 -2.015625 C 2.226562 -1.953125 2.164062 -1.882812 2.125 -1.8125 C 2.082031 -1.738281 2.0625 -1.664062 2.0625 -1.59375 C 2.0625 -1.507812 2.09375 -1.441406 2.15625 -1.390625 C 2.226562 -1.335938 2.328125 -1.296875 2.453125 -1.265625 C 2.585938 -1.242188 2.757812 -1.234375 2.96875 -1.234375 L 3.984375 -1.234375 C 4.640625 -1.234375 5.140625 -1.09375 5.484375 -0.8125 C 5.828125 -0.53125 6 -0.117188 6 0.421875 C 6 1.128906 5.707031 1.675781 5.125 2.0625 C 4.539062 2.445312 3.703125 2.640625 2.609375 2.640625 Z M 2.671875 1.5625 C 3.066406 1.5625 3.40625 1.523438 3.6875 1.453125 C 3.96875 1.378906 4.179688 1.273438 4.328125 1.140625 C 4.472656 1.015625 4.546875 0.859375 4.546875 0.671875 C 4.546875 0.515625 4.503906 0.394531 4.421875 0.3125 C 4.335938 0.226562 4.207031 0.164062 4.03125 0.125 C 3.851562 0.09375 3.625 0.078125 3.34375 0.078125 L 2.5 0.078125 C 2.300781 0.078125 2.117188 0.109375 1.953125 0.171875 C 1.796875 0.234375 1.671875 0.320312 1.578125 0.4375 C 1.492188 0.550781 1.453125 0.6875 1.453125 0.84375 C 1.453125 1.070312 1.554688 1.25 1.765625 1.375 C 1.984375 1.5 2.285156 1.5625 2.671875 1.5625 Z M 2.9375 -2.96875 C 3.25 -2.96875 3.472656 -3.0625 3.609375 -3.25 C 3.753906 -3.445312 3.828125 -3.707031 3.828125 -4.03125 C 3.828125 -4.382812 3.753906 -4.648438 3.609375 -4.828125 C 3.460938 -5.015625 3.238281 -5.109375 2.9375 -5.109375 C 2.632812 -5.109375 2.410156 -5.015625 2.265625 -4.828125 C 2.117188 -4.648438 2.046875 -4.382812 2.046875 -4.03125 C 2.046875 -3.707031 2.117188 -3.445312 2.265625 -3.25 C 2.410156 -3.0625 2.632812 -2.96875 2.9375 -2.96875 Z M 2.9375 -2.96875 "/></g></g><g style="fill:#171f4e;fill-opacity:1;"><g transform="translate(75.582226, 17.77974)"><path style="stroke:none" d="M 3.328125 -6.09375 C 3.878906 -6.09375 4.351562 -5.988281 4.75 -5.78125 C 5.15625 -5.570312 5.46875 -5.265625 5.6875 -4.859375 C 5.90625 -4.453125 6.015625 -3.957031 6.015625 -3.375 L 6.015625 -2.59375 L 2.140625 -2.59375 C 2.160156 -2.125 2.300781 -1.757812 2.5625 -1.5 C 2.820312 -1.238281 3.179688 -1.109375 3.640625 -1.109375 C 4.023438 -1.109375 4.375 -1.144531 4.6875 -1.21875 C 5.007812 -1.300781 5.335938 -1.421875 5.671875 -1.578125 L 5.671875 -0.3125 C 5.378906 -0.164062 5.070312 -0.0625 4.75 0 C 4.425781 0.0703125 4.03125 0.109375 3.5625 0.109375 C 2.96875 0.109375 2.4375 0 1.96875 -0.21875 C 1.507812 -0.445312 1.148438 -0.785156 0.890625 -1.234375 C 0.628906 -1.691406 0.5 -2.265625 0.5 -2.953125 C 0.5 -3.648438 0.613281 -4.234375 0.84375 -4.703125 C 1.082031 -5.171875 1.414062 -5.519531 1.84375 -5.75 C 2.269531 -5.976562 2.765625 -6.09375 3.328125 -6.09375 Z M 3.34375 -4.9375 C 3.019531 -4.9375 2.753906 -4.832031 2.546875 -4.625 C 2.335938 -4.425781 2.21875 -4.109375 2.1875 -3.671875 L 4.484375 -3.671875 C 4.472656 -3.910156 4.425781 -4.125 4.34375 -4.3125 C 4.257812 -4.507812 4.132812 -4.660156 3.96875 -4.765625 C 3.800781 -4.878906 3.59375 -4.9375 3.34375 -4.9375 Z M 3.34375 -4.9375 "/></g></g><g style="fill:#171f4e;fill-opacity:1;"><g transform="translate(81.578867, 17.77974)"><path style="stroke:none" d="M 4.296875 0 L 2.421875 -6.140625 L 2.375 -6.140625 C 2.375 -5.992188 2.378906 -5.773438 2.390625 -5.484375 C 2.410156 -5.191406 2.425781 -4.878906 2.4375 -4.546875 C 2.457031 -4.210938 2.46875 -3.910156 2.46875 -3.640625 L 2.46875 0 L 0.984375 0 L 0.984375 -7.828125 L 3.25 -7.828125 L 5.09375 -1.84375 L 5.125 -1.84375 L 7.09375 -7.828125 L 9.359375 -7.828125 L 9.359375 0 L 7.8125 0 L 7.8125 -3.703125 C 7.8125 -3.953125 7.8125 -4.238281 7.8125 -4.5625 C 7.820312 -4.882812 7.832031 -5.1875 7.84375 -5.46875 C 7.863281 -5.757812 7.878906 -5.976562 7.890625 -6.125 L 7.84375 -6.125 L 5.828125 0 Z M 4.296875 0 "/></g></g><g style="fill:#171f4e;fill-opacity:1;"><g transform="translate(91.436272, 17.77974)"><path style="stroke:none" d="M 2.484375 -5.984375 L 2.484375 0 L 0.859375 0 L 0.859375 -5.984375 Z M 1.671875 -8.328125 C 1.921875 -8.328125 2.128906 -8.269531 2.296875 -8.15625 C 2.472656 -8.050781 2.5625 -7.84375 2.5625 -7.53125 C 2.5625 -7.226562 2.472656 -7.019531 2.296875 -6.90625 C 2.128906 -6.789062 1.921875 -6.734375 1.671875 -6.734375 C 1.429688 -6.734375 1.222656 -6.789062 1.046875 -6.90625 C 0.867188 -7.019531 0.78125 -7.226562 0.78125 -7.53125 C 0.78125 -7.84375 0.867188 -8.050781 1.046875 -8.15625 C 1.222656 -8.269531 1.429688 -8.328125 1.671875 -8.328125 Z M 1.671875 -8.328125 "/></g></g><g style="fill:#171f4e;fill-opacity:1;"><g transform="translate(94.300404, 17.77974)"><path style="stroke:none" d="M 4.265625 -6.09375 C 4.898438 -6.09375 5.410156 -5.921875 5.796875 -5.578125 C 6.191406 -5.234375 6.390625 -4.675781 6.390625 -3.90625 L 6.390625 0 L 4.75 0 L 4.75 -3.5 C 4.75 -3.925781 4.671875 -4.25 4.515625 -4.46875 C 4.359375 -4.6875 4.113281 -4.796875 3.78125 -4.796875 C 3.28125 -4.796875 2.9375 -4.625 2.75 -4.28125 C 2.570312 -3.945312 2.484375 -3.457031 2.484375 -2.8125 L 2.484375 0 L 0.859375 0 L 0.859375 -5.984375 L 2.109375 -5.984375 L 2.328125 -5.21875 L 2.421875 -5.21875 C 2.546875 -5.425781 2.703125 -5.59375 2.890625 -5.71875 C 3.085938 -5.851562 3.300781 -5.945312 3.53125 -6 C 3.769531 -6.0625 4.015625 -6.09375 4.265625 -6.09375 Z M 4.265625 -6.09375 "/></g></g><g style="fill:#171f4e;fill-opacity:1;"><g transform="translate(101.025288, 17.77974)"><path style="stroke:none" d="M 2.75 0.109375 C 2.082031 0.109375 1.539062 -0.148438 1.125 -0.671875 C 0.707031 -1.203125 0.5 -1.972656 0.5 -2.984375 C 0.5 -4.003906 0.707031 -4.773438 1.125 -5.296875 C 1.550781 -5.828125 2.109375 -6.09375 2.796875 -6.09375 C 3.078125 -6.09375 3.328125 -6.050781 3.546875 -5.96875 C 3.765625 -5.894531 3.953125 -5.789062 4.109375 -5.65625 C 4.273438 -5.53125 4.410156 -5.382812 4.515625 -5.21875 L 4.578125 -5.21875 C 4.554688 -5.332031 4.53125 -5.5 4.5 -5.71875 C 4.46875 -5.945312 4.453125 -6.179688 4.453125 -6.421875 L 4.453125 -8.328125 L 6.09375 -8.328125 L 6.09375 0 L 4.84375 0 L 4.515625 -0.78125 L 4.453125 -0.78125 C 4.347656 -0.613281 4.21875 -0.460938 4.0625 -0.328125 C 3.90625 -0.191406 3.71875 -0.0820312 3.5 0 C 3.289062 0.0703125 3.039062 0.109375 2.75 0.109375 Z M 3.328125 -1.1875 C 3.773438 -1.1875 4.085938 -1.320312 4.265625 -1.59375 C 4.453125 -1.863281 4.550781 -2.265625 4.5625 -2.796875 L 4.5625 -2.96875 C 4.5625 -3.550781 4.472656 -3.992188 4.296875 -4.296875 C 4.117188 -4.609375 3.785156 -4.765625 3.296875 -4.765625 C 2.941406 -4.765625 2.660156 -4.609375 2.453125 -4.296875 C 2.242188 -3.992188 2.140625 -3.550781 2.140625 -2.96875 C 2.140625 -2.375 2.242188 -1.925781 2.453125 -1.625 C 2.660156 -1.332031 2.953125 -1.1875 3.328125 -1.1875 Z M 3.328125 -1.1875 "/></g></g><path style=" stroke:none;fill-rule:evenodd;fill:#4462ee;fill-opacity:1;" d="M 11.824219 13.546875 L 20.832031 13.546875 C 21.253906 13.546875 21.605469 13.890625 21.605469 14.3125 C 21.605469 14.734375 21.253906 15.078125 20.832031 15.078125 L 11.824219 15.078125 C 11.402344 15.078125 11.054688 14.734375 11.054688 14.3125 C 11.054688 13.886719 11.402344 13.546875 11.824219 13.546875 "/><path style=" stroke:none;fill-rule:evenodd;fill:#4462ee;fill-opacity:1;" d="M 11.824219 16.835938 L 25.226562 16.835938 C 25.648438 16.835938 26 17.179688 26 17.601562 C 26 18.019531 25.648438 18.367188 25.226562 18.367188 L 11.824219 18.367188 C 11.402344 18.367188 11.054688 18.019531 11.054688 17.601562 C 11.054688 17.179688 11.402344 16.835938 11.824219 16.835938 "/><path style=" stroke:none;fill-rule:evenodd;fill:#4462ee;fill-opacity:1;" d="M 11.824219 10.257812 L 23.589844 10.257812 C 24.011719 10.257812 24.359375 10.605469 24.359375 11.027344 C 24.359375 11.445312 24.011719 11.792969 23.589844 11.792969 L 11.824219 11.792969 C 11.402344 11.792969 11.054688 11.445312 11.054688 11.027344 C 11.054688 10.597656 11.402344 10.257812 11.824219 10.257812 "/><g clip-rule="nonzero" clip-path="url(#2d8454706a)"><path style=" stroke:none;fill-rule:evenodd;fill:#171f4e;fill-opacity:1;" d="M 25.785156 22.316406 L 29.445312 22.316406 C 30.507812 22.316406 31.527344 21.890625 32.277344 21.144531 C 32.523438 20.902344 32.734375 20.628906 32.910156 20.332031 L 32.9375 20.289062 L 32.957031 20.25 C 33 20.183594 33.035156 20.109375 33.066406 20.035156 C 33.101562 19.957031 33.136719 19.882812 33.164062 19.808594 L 33.199219 19.722656 L 33.210938 19.675781 L 33.222656 19.625 L 33.238281 19.578125 L 33.265625 19.484375 L 33.277344 19.4375 L 33.292969 19.390625 L 33.304688 19.34375 L 33.328125 19.246094 L 33.339844 19.199219 L 33.355469 19.152344 L 33.359375 19.105469 L 33.382812 19.011719 L 33.386719 18.960938 L 33.410156 18.820312 L 33.414062 18.773438 L 33.421875 18.726562 L 33.429688 18.675781 L 33.4375 18.628906 L 33.441406 18.582031 L 33.441406 6.761719 L 33.4375 6.714844 L 33.414062 6.574219 L 33.410156 6.523438 L 33.386719 6.382812 L 33.382812 6.335938 L 33.359375 6.242188 L 33.355469 6.191406 L 33.339844 6.144531 L 33.347656 6.078125 L 33.328125 5.984375 L 33.3125 5.933594 L 33.300781 5.886719 L 33.285156 5.839844 L 33.257812 5.746094 L 33.246094 5.699219 L 33.230469 5.652344 L 33.203125 5.609375 L 33.171875 5.523438 C 33.136719 5.449219 33.101562 5.371094 33.066406 5.296875 C 33.035156 5.222656 32.992188 5.15625 32.957031 5.082031 L 32.929688 5.039062 L 32.902344 5 C 32.726562 4.707031 32.515625 4.429688 32.269531 4.1875 C 31.519531 3.441406 30.5 3.015625 29.4375 3.015625 L 21.195312 3.015625 L 20.492188 0.046875 L 29.5 0.046875 C 29.621094 0.046875 29.746094 0.0507812 29.875 0.0585938 L 29.96875 0.0585938 C 30.050781 0.0664062 30.140625 0.0742188 30.222656 0.078125 L 30.230469 0.078125 L 30.277344 0.0859375 L 30.316406 0.09375 C 30.40625 0.105469 30.488281 0.113281 30.570312 0.125 L 30.609375 0.132812 L 30.652344 0.140625 C 30.734375 0.152344 30.824219 0.175781 30.90625 0.1875 L 30.945312 0.195312 L 30.988281 0.203125 C 31.066406 0.222656 31.148438 0.242188 31.230469 0.261719 L 31.265625 0.269531 L 31.3125 0.28125 L 31.347656 0.289062 L 31.394531 0.304688 C 31.503906 0.335938 31.613281 0.371094 31.722656 0.40625 L 31.75 0.417969 L 31.796875 0.4375 L 31.824219 0.453125 L 31.875 0.472656 L 31.957031 0.507812 L 31.984375 0.511719 L 32.039062 0.535156 L 32.117188 0.566406 L 32.144531 0.582031 L 32.199219 0.601562 L 32.28125 0.636719 C 32.359375 0.667969 32.441406 0.703125 32.515625 0.742188 L 32.535156 0.75 L 32.589844 0.777344 L 32.664062 0.816406 L 32.683594 0.824219 L 32.738281 0.851562 L 32.761719 0.859375 L 32.816406 0.894531 L 32.828125 0.898438 L 32.882812 0.933594 L 32.953125 0.972656 L 32.957031 0.980469 L 32.972656 0.988281 L 33.027344 1.023438 L 33.039062 1.027344 L 33.101562 1.0625 L 33.117188 1.070312 L 33.175781 1.101562 L 33.320312 1.199219 L 33.332031 1.203125 L 33.394531 1.246094 L 33.464844 1.292969 L 33.46875 1.300781 L 33.53125 1.339844 L 33.539062 1.347656 L 33.601562 1.394531 L 33.605469 1.402344 L 33.667969 1.449219 L 33.683594 1.46875 L 33.742188 1.515625 L 33.75 1.523438 L 33.8125 1.570312 L 33.816406 1.578125 L 33.878906 1.625 L 33.886719 1.632812 L 33.949219 1.679688 L 33.953125 1.6875 L 34.015625 1.738281 L 34.023438 1.738281 L 34.144531 1.847656 L 34.207031 1.902344 L 34.453125 2.148438 L 34.515625 2.207031 L 34.574219 2.269531 L 34.636719 2.328125 L 34.691406 2.390625 L 34.746094 2.457031 L 34.800781 2.527344 L 34.910156 2.65625 L 35.019531 2.789062 C 35.074219 2.859375 35.121094 2.925781 35.167969 2.992188 L 35.21875 3.0625 L 35.3125 3.195312 L 35.359375 3.273438 L 35.40625 3.347656 C 35.449219 3.433594 35.488281 3.503906 35.53125 3.578125 L 35.570312 3.652344 L 35.613281 3.726562 L 35.652344 3.800781 L 35.695312 3.875 L 35.769531 4.023438 L 35.839844 4.171875 L 35.871094 4.246094 L 35.941406 4.402344 L 35.972656 4.484375 C 36.015625 4.59375 36.054688 4.695312 36.089844 4.804688 L 36.117188 4.886719 L 36.144531 4.964844 L 36.171875 5.046875 C 36.191406 5.128906 36.21875 5.210938 36.242188 5.292969 L 36.261719 5.371094 L 36.269531 5.46875 L 36.289062 5.550781 L 36.308594 5.628906 L 36.324219 5.710938 L 36.335938 5.792969 L 36.351562 5.875 L 36.363281 5.957031 L 36.378906 6.039062 L 36.390625 6.117188 L 36.410156 6.289062 L 36.417969 6.375 L 36.425781 6.464844 L 36.4375 6.632812 L 36.445312 6.722656 L 36.445312 18.582031 L 36.4375 18.671875 L 36.425781 18.839844 L 36.417969 18.929688 L 36.410156 19.015625 L 36.390625 19.1875 L 36.378906 19.265625 L 36.363281 19.347656 L 36.351562 19.429688 L 36.335938 19.511719 L 36.324219 19.59375 L 36.308594 19.675781 L 36.289062 19.753906 L 36.269531 19.835938 L 36.246094 19.917969 L 36.226562 20 C 36.207031 20.082031 36.1875 20.160156 36.160156 20.242188 L 36.078125 20.488281 C 36.042969 20.597656 36 20.699219 35.960938 20.804688 L 35.925781 20.886719 L 35.894531 20.96875 L 35.789062 21.191406 L 35.757812 21.265625 L 35.679688 21.414062 L 35.640625 21.492188 L 35.597656 21.566406 L 35.558594 21.640625 L 35.515625 21.714844 C 35.476562 21.789062 35.429688 21.863281 35.386719 21.929688 L 35.339844 22.003906 L 35.292969 22.074219 L 35.246094 22.140625 L 35.195312 22.207031 L 35.148438 22.277344 C 35.101562 22.34375 35.046875 22.414062 35 22.480469 L 34.945312 22.546875 L 34.890625 22.617188 C 34.855469 22.664062 34.816406 22.703125 34.78125 22.746094 L 34.726562 22.804688 L 34.671875 22.867188 L 34.617188 22.925781 L 34.371094 23.171875 L 34.308594 23.230469 L 34.25 23.292969 L 34.1875 23.355469 L 34.125 23.410156 L 34.003906 23.515625 L 33.996094 23.515625 L 33.933594 23.570312 L 33.925781 23.578125 L 33.867188 23.625 L 33.859375 23.632812 L 33.796875 23.679688 L 33.789062 23.6875 L 33.730469 23.734375 L 33.722656 23.742188 L 33.660156 23.789062 L 33.65625 23.792969 L 33.59375 23.84375 L 33.585938 23.847656 L 33.523438 23.898438 L 33.519531 23.902344 L 33.457031 23.945312 L 33.449219 23.949219 L 33.382812 24 L 33.320312 24.039062 L 33.304688 24.046875 L 33.164062 24.140625 L 33.101562 24.175781 L 33.089844 24.179688 L 33.027344 24.214844 L 33.011719 24.222656 L 32.957031 24.253906 L 32.945312 24.261719 L 32.9375 24.269531 L 32.871094 24.308594 L 32.816406 24.34375 L 32.800781 24.351562 L 32.746094 24.382812 L 32.726562 24.390625 L 32.671875 24.417969 L 32.652344 24.425781 L 32.578125 24.464844 L 32.523438 24.492188 L 32.5 24.5 C 32.425781 24.539062 32.34375 24.574219 32.269531 24.609375 L 32.214844 24.628906 L 32.105469 24.675781 L 32.042969 24.785156 L 31.988281 24.804688 L 31.960938 24.816406 L 31.878906 24.84375 L 31.832031 24.867188 L 31.804688 24.878906 L 31.757812 24.898438 L 31.730469 24.90625 C 31.621094 24.941406 31.511719 24.980469 31.402344 25.007812 L 31.355469 25.023438 L 31.320312 25.027344 L 31.273438 25.042969 L 31.238281 25.046875 C 31.15625 25.070312 31.074219 25.089844 30.992188 25.109375 L 30.9375 25.125 L 30.898438 25.128906 C 30.816406 25.152344 30.726562 25.164062 30.644531 25.175781 L 30.605469 25.183594 L 30.5625 25.191406 C 30.480469 25.203125 30.394531 25.21875 30.3125 25.226562 L 30.269531 25.230469 L 30.222656 25.238281 L 30.214844 25.238281 C 30.132812 25.246094 30.042969 25.253906 29.960938 25.257812 L 29.867188 25.257812 C 29.746094 25.265625 29.621094 25.273438 29.492188 25.273438 L 26.484375 25.273438 Z M 25.785156 22.316406 "/></g><g clip-rule="nonzero" clip-path="url(#d18d5068a8)"><path style=" stroke:none;fill-rule:evenodd;fill:#4462ee;fill-opacity:1;" d="M 24.011719 23.117188 L 24.53125 25.277344 L 25.417969 29.007812 L 19.554688 25.277344 L 11.476562 25.277344 C 9.613281 25.277344 7.847656 24.546875 6.53125 23.238281 C 5.210938 21.9375 4.476562 20.183594 4.476562 18.332031 L 4.476562 7 C 4.476562 5.148438 5.210938 3.394531 6.53125 2.085938 C 7.847656 0.777344 9.613281 0.046875 11.476562 0.046875 L 18.527344 0.046875 L 19.230469 3.015625 L 11.476562 3.015625 C 10.414062 3.015625 9.394531 3.433594 8.644531 4.1875 C 7.886719 4.933594 7.464844 5.941406 7.464844 7 L 7.464844 18.332031 C 7.464844 19.390625 7.894531 20.398438 8.644531 21.144531 C 9.394531 21.890625 10.414062 22.316406 11.476562 22.316406 L 23.820312 22.316406 Z M 24.011719 23.117188 "/></g><path style=" stroke:none;fill-rule:evenodd;fill:#4462ee;fill-opacity:1;" d="M 11.824219 6.964844 L 29.097656 6.964844 C 29.519531 6.964844 29.867188 7.3125 29.867188 7.730469 C 29.867188 8.152344 29.519531 8.496094 29.097656 8.496094 L 11.824219 8.496094 C 11.402344 8.496094 11.054688 8.152344 11.054688 7.730469 C 11.054688 7.3125 11.402344 6.964844 11.824219 6.964844 "/></g></svg>